<svg width="177" height="169" viewBox="0 0 177 169" fill="none" xmlns="http://www.w3.org/2000/svg">
<path d="M176.042 0.178737C173.19 48.6611 167.631 104.826 137.374 145.392C109.533 166.846 89.4739 169.891 55.2044 168.813C52.0143 167.267 48.8242 165.721 45.5375 164.129C48.8242 132.088 63.0347 104.451 84.2054 79.8116C72.46 85.5265 66.8048 92.4124 58.2012 102.062C55.2528 105.435 52.256 108.761 49.1626 112.227C39.6889 123.141 30.4086 134.149 21.37 145.392C6.14453 126.936 -1.34738 114.241 0.199334 89.5549C4.83948 64.5877 15.4732 44.6326 36.7889 29.4555C77.2935 7.57991 130.075 -1.41392 176.042 0.178737Z" fill="#17400A"/>
</svg>
