<svg width="65" height="65" viewBox="0 0 65 65" fill="none" xmlns="http://www.w3.org/2000/svg">
<path d="M15.8438 46.3125C18.1459 44.552 20.7188 43.164 23.5625 42.1484C26.4063 41.1328 29.3854 40.625 32.5 40.625C35.6146 40.625 38.5938 41.1328 41.4375 42.1484C44.2813 43.164 46.8542 44.552 49.1563 46.3125C50.7361 44.4618 51.9662 42.3628 52.8464 40.0156C53.7266 37.6684 54.1667 35.1632 54.1667 32.5C54.1667 26.4965 52.0564 21.3845 47.836 17.164C43.6155 12.9435 38.5035 10.8333 32.5 10.8333C26.4965 10.8333 21.3846 12.9435 17.1641 17.164C12.9436 21.3845 10.8334 26.4965 10.8334 32.5C10.8334 35.1632 11.2735 37.6684 12.1537 40.0156C13.0339 42.3628 14.2639 44.4618 15.8438 46.3125ZM32.5 35.2083C29.8368 35.2083 27.5912 34.2942 25.763 32.4661C23.9349 30.638 23.0209 28.3923 23.0209 25.7291C23.0209 23.0659 23.9349 20.8203 25.763 18.9921C27.5912 17.164 29.8368 16.25 32.5 16.25C35.1632 16.25 37.4089 17.164 39.237 18.9921C41.0651 20.8203 41.9792 23.0659 41.9792 25.7291C41.9792 28.3923 41.0651 30.638 39.237 32.4661C37.4089 34.2942 35.1632 35.2083 32.5 35.2083ZM32.5 59.5833C28.7535 59.5833 25.2327 58.8724 21.9375 57.4505C18.6424 56.0286 15.7761 54.0989 13.3386 51.6614C10.9011 49.2239 8.97137 46.3576 7.5495 43.0625C6.12762 39.7673 5.41669 36.2465 5.41669 32.5C5.41669 28.7534 6.12762 25.2326 7.5495 21.9375C8.97137 18.6423 10.9011 15.776 13.3386 13.3385C15.7761 10.901 18.6424 8.97131 21.9375 7.54944C25.2327 6.12756 28.7535 5.41663 32.5 5.41663C36.2465 5.41663 39.7674 6.12756 43.0625 7.54944C46.3577 8.97131 49.224 10.901 51.6615 13.3385C54.099 15.776 56.0287 18.6423 57.4505 21.9375C58.8724 25.2326 59.5834 28.7534 59.5834 32.5C59.5834 36.2465 58.8724 39.7673 57.4505 43.0625C56.0287 46.3576 54.099 49.2239 51.6615 51.6614C49.224 54.0989 46.3577 56.0286 43.0625 57.4505C39.7674 58.8724 36.2465 59.5833 32.5 59.5833Z" fill="#852221"/>
</svg>
